# xmcd
#
# Track frame offsets: 
#        150
#        42573
#        81458
#        113567
#        140960
#        179754
#        223430
#        244401
#
# Disc length: 3797 seconds
#
# Revision: 3
# Processed by: cddbd v1.5.2PL0 Copyright (c) Steve Scherf et al.
# Submitted via: ExactAudioCopy v0.95b2
#
DISCID=880ed308
DTITLE=Simple Acoustic Trio - Habanera
DYEAR=2000
DGENRE=Jazz
TTITLE0=Habanera Excentrica
TTITLE1=Without Them
TTITLE2=Tamara
TTITLE3=Green Sky
TTITLE4=Furiozi
TTITLE5=Stravinsky
TTITLE6=Simple Song
TTITLE7=Simple Jungle
EXTD=
EXTT0=
EXTT1=
EXTT2=
EXTT3=
EXTT4=
EXTT5=
EXTT6=
EXTT7=
PLAYORDER=
